<svg width="231" height="231" viewBox="0 0 231 231" fill="none" xmlns="http://www.w3.org/2000/svg">
<g clip-path="url(#clip0_4_131)">
<path d="M164.648 164.587H106.898V86.4296L156.833 113.785L164.648 164.587Z" fill="#2F2E41"/>
<path d="M117.567 150.793C138.274 150.793 155.06 134.007 155.06 113.3C155.06 92.5924 138.274 75.8059 117.567 75.8059C96.8597 75.8059 80.0732 92.5924 80.0732 113.3C80.0732 134.007 96.8597 150.793 117.567 150.793Z" fill="#FFB6B6"/>
<path d="M96.043 156.338L94.3491 139.215L128.175 132.89L148.148 181.522L113.411 221.469L88.6614 172.838L96.043 156.338Z" fill="#FFB6B6"/>
<path d="M198.452 195.868C198.03 196.307 197.601 196.741 197.171 197.171C195.807 198.534 194.418 199.858 192.998 201.144C171.722 220.44 144.423 231 115.5 231C88.8351 231 63.551 222.025 43.0954 205.503C43.0824 205.494 43.0737 205.486 43.0607 205.473C42.4397 204.973 41.8275 204.465 41.2153 203.949C41.3238 203.636 41.4411 203.328 41.5583 203.024C48.1366 185.886 61.1282 177.501 69.0134 173.832C72.9213 172.013 75.5743 171.348 75.5743 171.348L84.8317 154.675L91.3492 166.832L96.1516 175.795L115.856 212.559L132.855 170.232L138.122 157.11L139.473 153.75L145.895 158.747L151.974 163.476L164.214 166.177L174.144 168.369L187.631 171.348C193.085 175.79 196.402 184.24 198.256 194.739C198.326 195.113 198.391 195.49 198.452 195.868Z" fill="#FF82C5"/>
<path d="M97.8448 70.6908C102.412 63.0192 110.8 57.7556 119.694 56.9798C128.589 56.204 137.761 59.9359 143.587 66.701C147.059 70.7323 149.336 75.6695 152.72 79.7746C160.003 88.6089 172.421 93.7742 175.603 104.772C176.991 109.572 176.299 114.696 175.597 119.642C174.995 123.882 174.392 128.121 173.79 132.361C173.322 135.66 172.872 139.139 174.11 142.233C175.561 145.863 179.035 148.241 181.28 151.442C185.102 156.887 184.823 164.86 180.629 170.025C178.811 172.265 176.4 173.954 174.493 176.12C172.587 178.285 171.173 181.246 171.971 184.018C173.501 189.329 181.83 190.603 182.743 196.054C183.21 198.84 181.286 201.623 178.763 202.898C176.241 204.172 173.273 204.209 170.468 203.868C159.806 202.572 149.935 195.911 144.744 186.509C139.553 177.106 139.175 165.204 143.759 155.491C147.524 147.514 154.521 140.465 154.445 131.645C154.403 126.839 152.199 122.351 150.044 118.056C145.633 109.265 141.222 100.474 136.81 91.6833C134.447 86.9743 131.705 81.8998 126.84 79.8769C123.081 78.3134 118.815 78.9198 114.793 79.5593C110.772 80.1987 106.512 80.8212 102.741 79.2849C98.9706 77.7487 96.1213 73.1844 97.918 69.5304" fill="#2F2E41"/>
<path d="M104.415 71.0915C97.1714 68.707 89.0454 72.5349 84.1414 78.3751C79.2373 84.2153 76.8584 91.7079 74.5922 98.9896C73.2941 103.161 71.996 107.332 70.698 111.502C69.4769 115.426 68.2557 119.35 67.0346 123.273C65.5983 127.888 64.1503 132.791 65.3291 137.479C66.1812 140.868 68.374 143.945 68.4212 147.439C68.4705 151.089 66.1848 154.293 64.1817 157.344C62.1787 160.396 60.2984 164.021 61.2527 167.544C62.7043 172.903 70.1549 175.849 69.7465 181.386C69.6102 183.234 68.5416 184.943 68.561 186.796C68.5857 189.153 70.4314 191.19 72.5937 192.129C74.7561 193.069 77.1884 193.12 79.5456 193.078C86.7758 192.951 93.9929 192.092 101.051 190.52C103.767 189.915 106.528 189.172 108.789 187.55C111.049 185.928 112.735 183.241 112.441 180.475C111.983 176.163 107.347 173.718 105.008 170.067C102.711 166.482 102.764 161.939 101.773 157.798C100.412 152.106 97.0489 147.137 94.5245 141.857C85.034 122.006 88.3563 96.7043 102.65 79.9768C103.913 78.4978 105.294 77.0099 105.821 75.1374C106.349 73.2648 105.669 70.879 103.837 70.2239" fill="#2F2E41"/>
<path d="M197.171 33.8293C175.356 12.0146 146.351 0 115.5 0C84.6494 0 55.6441 12.0146 33.8293 33.8293C12.0146 55.6441 0 84.6493 0 115.5C0 143.659 10.0085 170.28 28.3496 191.3C30.0995 193.311 31.9275 195.269 33.8293 197.171C34.2766 197.618 34.7282 198.065 35.1841 198.499C36.3999 199.676 37.6374 200.827 38.8966 201.943C39.6608 202.624 40.4337 203.293 41.2153 203.949C41.8275 204.465 42.4397 204.973 43.0607 205.473C43.0737 205.486 43.0824 205.494 43.0954 205.503C63.5511 222.025 88.8352 231 115.5 231C144.423 231 171.722 220.44 192.998 201.144C194.418 199.858 195.807 198.534 197.171 197.171C197.601 196.741 198.03 196.307 198.452 195.868C199.624 194.661 200.762 193.432 201.873 192.186C220.705 171.031 231 144.058 231 115.5C231 84.6493 218.985 55.6441 197.171 33.8293ZM201.591 191.105C200.505 192.338 199.394 193.554 198.256 194.739C196.485 196.584 194.657 198.373 192.768 200.097C192.051 200.757 191.326 201.4 190.592 202.038C183.18 208.486 174.93 213.992 166.033 218.378C162.911 219.919 159.711 221.321 156.437 222.576C143.719 227.457 129.916 230.132 115.5 230.132C101.588 230.132 88.2489 227.639 75.9043 223.08C70.8371 221.213 65.9392 218.994 61.2367 216.454C60.5463 216.081 59.8603 215.703 59.1785 215.316C55.592 213.284 52.1226 211.065 48.7922 208.669C46.3042 206.884 43.89 205.004 41.5583 203.024C40.742 202.333 39.9344 201.634 39.1397 200.918C37.8458 199.767 36.5779 198.582 35.3404 197.366C32.9957 195.069 30.7551 192.677 28.6145 190.189C11.3286 170.111 0.868421 144.006 0.868421 115.5C0.868421 52.292 52.292 0.868421 115.5 0.868421C178.708 0.868421 230.132 52.292 230.132 115.5C230.132 144.444 219.35 170.914 201.591 191.105Z" fill="#3F3D56"/>
</g>
<defs>
<clipPath id="clip0_4_131">
<rect width="231" height="231" fill="white"/>
</clipPath>
</defs>
</svg>
