<svg width="338" height="183" viewBox="0 0 338 183" fill="none" xmlns="http://www.w3.org/2000/svg">
<g clip-path="url(#clip0_3_8)">
<path d="M261.06 119.487C258.312 115.897 253.552 109.677 245.364 107.807C229.939 104.282 216.684 119.472 215.432 120.947C202.951 135.668 201.018 161.13 213.607 173.511C220.06 179.856 228.828 181.291 232.588 181.906C237.006 182.629 247.282 184.31 255.95 178.256C260.604 175.005 262.837 170.892 264.345 168.035C271.423 154.636 272.341 134.226 261.06 119.487ZM241.9 175.304C232.856 176.238 224.286 167.752 220.766 159.806C218.801 155.285 218.113 150.312 218.775 145.427C219.438 140.542 221.425 135.932 224.523 132.098C225.829 130.515 232.773 122.098 242.369 123.175C251.807 124.234 257.427 133.761 259.276 140.082C263.463 154.393 254.668 173.985 241.9 175.304Z" fill="#6C63FF"/>
<path d="M184.869 177.15H180.114L177.851 158.806H184.87L184.869 177.15Z" fill="#FFB6B6"/>
<path d="M184.742 175.597L179.665 173.531L179.519 173.472L176.716 175.597C175.133 175.597 173.615 176.226 172.496 177.345C171.376 178.464 170.747 179.982 170.747 181.565V181.759H186.081V175.597H184.742Z" fill="#2F2E41"/>
<path d="M244.419 140.57L243.346 145.203L224.965 143.27L226.548 136.432L244.419 140.57Z" fill="#FFB6B6"/>
<path d="M243.179 139.036L242.903 140.22L242.875 140.342L239.726 144.82L239.631 144.954L241.066 148.163C240.889 148.927 240.865 149.718 240.994 150.491C241.123 151.264 241.403 152.004 241.818 152.669C242.233 153.334 242.775 153.91 243.413 154.366C244.051 154.821 244.773 155.146 245.537 155.322L245.723 155.365L249.183 140.429L243.179 139.036Z" fill="#2F2E41"/>
<path d="M181.644 78.5557L207.867 79.4735L208.05 79.208C208.05 79.208 210.287 84.4272 210.287 88.9009C210.287 90.3883 209.252 100.117 209.778 101.957C209.844 102.186 209.394 102.747 209.541 103.813C209.637 104.505 210.165 103.973 210.287 104.931C210.374 105.62 209.444 105.999 209.541 106.795C209.647 107.665 210.927 110.482 211.042 111.449C212.268 121.749 210.273 124.425 210.273 124.425C210.273 124.425 232.7 133.823 234.087 134.108C236.415 134.587 237.987 138.82 236.697 139.7C236.083 140.12 234.038 147.928 234.038 147.928C233.602 148.007 232.237 147.322 233.107 145.703C233.267 145.405 232.312 146.164 232.154 145.807C231.985 145.428 229.595 147.092 229.402 146.671C227.667 142.89 205.957 137.649 203.433 134.958C199.702 130.983 197.34 125.919 196.691 120.507L194.528 100.643L192.543 109.646L190.901 111.269L191.351 115.053L191.274 118.725L187.173 134.01C187.173 134.01 186.558 162.555 187.546 163.462C188.081 163.953 190.351 170 186.055 170.545L178.249 169.943C178.249 169.943 177.197 167.726 177.723 166.938C178.249 166.149 178.217 166.364 177.576 165.073C176.934 163.782 177.197 161.595 177.197 161.595C176.174 151.315 175.771 140.983 175.989 130.655C176.38 113.691 178.751 94.2033 178.751 93.8062C178.771 93.4003 178.696 92.9953 178.533 92.6232V91.5525L179.54 87.7585L181.644 78.5557Z" fill="#2F2E41"/>
<path d="M210.217 84.6899C203.595 85.8351 199.155 85.399 196.423 81.3347C192.858 76.7955 186.375 82.1553 180.906 84.1481L180.257 83.4472L179.153 82.2579L180.167 81.1097L179.153 78.8952L180 76.1626L181.081 75.965L180.79 73.6126L180.335 72.237L181.67 70.7718L182.803 67.1146L181.987 59.461C180.869 48.9699 183.034 38.3907 188.183 29.1818L191.281 26.4007L192.567 25.245L194.293 22.0239L196.116 22.2365L201.052 22.8068L201.22 23.2095L202.431 26.1322L206.833 30.8603C207.455 31.529 207.928 32.3226 208.22 33.1883C208.513 34.0539 208.617 34.9719 208.527 35.8811L208.4 37.1561L208.307 38.0732L207.867 42.4872L206.074 60.5197L205.939 61.4778L204.497 71.8455C206.842 74.1122 206.984 73.6176 207.98 77.6066C208.092 78.0503 209.389 79.0382 209.471 79.4706C209.587 80.0821 210.217 84.6899 210.217 84.6899Z" fill="#3F3D56"/>
<path d="M196.773 20.1238C201.508 20.1238 205.346 16.2855 205.346 11.5507C205.346 6.81596 201.508 2.97766 196.773 2.97766C192.038 2.97766 188.2 6.81596 188.2 11.5507C188.2 16.2855 192.038 20.1238 196.773 20.1238Z" fill="#FFB6B6"/>
<path d="M205.742 5.09713C205.176 4.48541 204.448 4.04624 203.643 3.83028C202.838 3.61432 201.989 3.63038 201.192 3.8766C200.843 2.87778 200.227 1.99387 199.41 1.32111C198.594 0.64835 197.608 0.212532 196.561 0.0611046C195.514 -0.0903226 194.445 0.0484481 193.471 0.462306C192.498 0.876164 191.656 1.54924 191.038 2.40826C190.756 2.28142 190.445 2.22967 190.137 2.258C189.829 2.28633 189.533 2.3938 189.278 2.56999C188.773 2.92944 188.366 3.40997 188.094 3.96758C187.393 5.29916 187.066 6.79588 187.149 8.29842C187.231 9.80095 187.719 11.2531 188.561 12.5002C188.226 11.8227 189.169 12.9895 190.088 12.6838C190.878 12.4768 194.122 10.3967 194.932 10.5019C195.741 10.607 196.004 9.95424 196.796 9.75628C197.571 9.50821 199.551 12.7146 199.948 14.8363C200.023 15.2383 200.206 15.7379 200.615 15.747C201.118 15.7583 201.269 15.0371 201.694 14.7662C201.894 14.6643 202.126 14.6442 202.341 14.71C202.556 14.7758 202.737 14.9225 202.845 15.119C202.945 15.321 202.994 15.5438 202.99 15.7688C202.986 15.9939 202.928 16.2146 202.821 16.4128C202.604 16.8066 202.325 17.1628 201.994 17.4676L202.214 17.5885C202.431 17.7437 202.695 17.8186 202.961 17.8006C203.226 17.7825 203.478 17.6726 203.671 17.4895C204.49 17.8589 206.717 15.7757 206.422 14.5153C207.043 12.9703 207.383 11.3265 207.426 9.66161C207.46 7.9823 206.859 6.35199 205.742 5.09713Z" fill="#2F2E41"/>
<path d="M139.668 33.9852C139.985 34.2833 140.364 34.5083 140.778 34.6442C141.191 34.7802 141.63 34.8237 142.062 34.7719C142.494 34.7201 142.91 34.5741 143.28 34.3443C143.649 34.1145 143.964 33.8063 144.202 33.4417L162.527 37.8271L160.698 32.641L143.17 29.1794C142.531 28.8205 141.783 28.7085 141.066 28.8647C140.35 29.0209 139.716 29.4343 139.285 30.0267C138.853 30.6191 138.653 31.3493 138.724 32.0788C138.795 32.8084 139.131 33.4867 139.668 33.9852Z" fill="#FFB8B8"/>
<path d="M194.418 30.7951L192.95 30.0295L186.253 29.9242L186.008 29.9217L185.995 29.9229L180.861 29.8444L156.07 29.456L155.073 30.3265L153.54 29.4163L151.803 28.5358L150.208 29.3641L148.845 29.3428L148.637 30.2576L148.635 30.2609L148.629 30.2874L147.706 34.2787L147.704 34.2819L147.715 35.2234L149.319 36.9517L150.17 37.6035L151.935 38.3843L153.157 36.9284L154.591 38.4174L160.467 39.4992C170.291 42.2057 179.337 43.5083 186.279 41.0067L187.152 40.9659L194.043 40.638C194.985 40.5943 195.893 40.2725 196.652 39.7133C197.412 39.154 197.988 38.3824 198.31 37.4958L198.311 37.4926C198.529 36.8903 198.622 36.2502 198.585 35.6108C198.555 35.0233 198.413 34.4468 198.168 33.9118C197.729 32.9386 196.977 32.1397 196.033 31.6414L194.418 30.7951Z" fill="#3F3D56"/>
<path d="M296.634 171.546C296.966 171.558 297.292 171.468 297.571 171.288C297.849 171.108 298.065 170.847 298.19 170.54C298.315 170.233 298.343 169.895 298.269 169.572C298.196 169.249 298.024 168.956 297.779 168.733C297.737 168.572 297.706 168.456 297.664 168.294C297.973 167.487 298.516 166.79 299.224 166.293C299.932 165.796 300.772 165.521 301.637 165.505C302.502 165.489 303.351 165.731 304.078 166.201C304.804 166.67 305.373 167.346 305.713 168.142C307.67 172.607 310.193 177.224 309.008 182.173C316.986 164.838 314.013 143.398 301.838 128.754C298.494 126.954 295.767 123.724 295.03 119.951C296.681 120.493 298.721 119.134 297.467 117.412C296.924 116.754 296.376 116.102 295.833 115.444C302.023 108.725 309.573 119.121 302.776 128.175C305.054 130.977 307.034 134.009 308.682 137.222C308.276 133.797 308.688 130.325 309.886 127.091C311.102 124.076 313.412 121.524 315.442 118.908C317.91 115.721 323.066 117.132 323.441 121.143C321.142 121.923 320.874 125.256 323.516 125.687C322.896 133.162 318.083 140.071 311.394 143.41C313.942 150.35 314.981 157.752 314.443 165.125C315.548 156.504 324.77 154.327 331.197 150.843C331.605 150.576 332.083 150.433 332.571 150.432C333.06 150.431 333.538 150.573 333.947 150.839C334.357 151.106 334.68 151.485 334.877 151.932C335.074 152.379 335.137 152.873 335.058 153.355C334.17 153.726 333.321 154.185 332.524 154.724C332.15 154.98 331.865 155.346 331.707 155.771C331.55 156.196 331.527 156.659 331.643 157.097C331.759 157.535 332.008 157.926 332.355 158.218C332.702 158.509 333.131 158.686 333.582 158.724C330.403 166.813 322.036 172.305 313.39 172.357C312.593 175.975 311.423 179.501 309.898 182.878L297.065 183C297.018 182.858 296.975 182.711 296.932 182.569C298.121 182.632 299.312 182.55 300.481 182.323C297.303 178.633 294.855 176.758 296.634 171.546L296.634 171.546Z" fill="#F2F2F2"/>
<path d="M38.6134 135.268C38.2823 135.28 37.9554 135.19 37.6771 135.01C37.3989 134.83 37.1826 134.569 37.0577 134.262C36.9328 133.955 36.9053 133.617 36.9788 133.294C37.0523 132.971 37.2234 132.678 37.4689 132.456C37.5112 132.294 37.5415 132.178 37.5838 132.017C37.2747 131.209 36.7314 130.512 36.0236 130.015C35.3158 129.518 34.4757 129.244 33.611 129.227C32.7463 129.211 31.8964 129.453 31.1703 129.923C30.4442 130.393 29.8749 131.069 29.5354 131.864C27.5774 136.329 25.0544 140.946 26.2402 145.896C18.2618 128.561 21.2354 107.12 33.4097 92.4767C36.7534 90.676 39.4804 87.4463 40.2183 83.6729C38.5667 84.215 36.527 82.8564 37.7813 81.1342C38.3241 80.4766 38.8721 79.8242 39.4148 79.1666C33.2249 72.4472 25.6745 82.8431 32.472 91.8973C30.1935 94.6989 28.214 97.7311 26.566 100.944C26.9721 97.5195 26.5594 94.0472 25.3617 90.8131C24.1454 87.798 21.8361 85.2465 19.806 82.6306C17.3378 79.4434 12.1818 80.8539 11.8074 84.8651C14.1059 85.6449 14.3737 88.9784 11.7319 89.4091C12.3516 96.8839 17.1652 103.794 23.854 107.133C21.3061 114.072 20.2665 121.475 20.8045 128.847C19.7003 120.226 10.4783 118.049 4.05126 114.566C3.64263 114.298 3.16497 114.155 2.67654 114.154C2.18811 114.154 1.71001 114.295 1.30059 114.562C0.891159 114.828 0.568092 115.208 0.370797 115.654C0.173502 116.101 0.110512 116.596 0.189501 117.078C1.07761 117.449 1.92666 117.907 2.72417 118.446C3.09782 118.702 3.38302 119.068 3.54067 119.493C3.69833 119.918 3.72072 120.381 3.60477 120.819C3.48883 121.257 3.24023 121.649 2.89305 121.94C2.54587 122.231 2.1171 122.408 1.66552 122.446C4.84485 130.536 13.2116 136.027 21.8579 136.079C22.6544 139.698 23.8248 143.224 25.3502 146.6L38.1828 146.722C38.2302 146.58 38.2729 146.433 38.3157 146.291C37.1272 146.355 35.9354 146.272 34.7669 146.046C37.9449 142.355 40.3933 140.48 38.6138 135.268L38.6134 135.268Z" fill="#F2F2F2"/>
<path d="M35.4904 134.494C59.6008 130.592 74.4918 170.398 90.0424 167.893C118.542 163.302 106.729 20.4814 129.008 19.2668C148 18.2315 172.362 81.2555 192.483 119.066C203.058 138.941 208.808 153.077 208.808 153.077C208.808 153.077 200.007 195.779 187.494 178.925C169.619 154.847 156.178 70.5272 146.264 74.3755C131.084 80.268 148.206 152.766 111.752 175.13C79.9105 194.664 17.7148 166.91 17.6775 149.524C17.6632 142.846 26.8131 135.898 35.4904 134.494Z" fill="#6C63FF"/>
<path d="M151.349 126.35C146.436 127.475 139.984 130.95 140.334 134.153C140.709 137.586 148.907 140.767 155.48 138.743C160.873 137.082 165.781 131.731 164.66 128.645C163.502 125.46 156.127 125.257 151.349 126.35Z" fill="#6C63FF"/>
<path d="M280.344 114.829C281.93 112.144 284.198 108.163 282.535 105.343C280.263 101.492 273.22 96.3583 268.837 101.366C265.506 105.173 266.254 106.695 266.298 112.604C266.42 128.736 257.287 163.188 266.833 179.583C268.62 182.652 278.496 182.043 282.409 182.425C286.746 182.848 291.452 178.631 291.184 173.751C290.944 169.38 286.837 168.108 282.733 165.233C267.973 154.894 272.132 128.734 280.344 114.829Z" fill="#6C63FF"/>
<path d="M93.8111 22.4273C93.7113 23.6245 93.6146 24.8217 93.5209 26.0188C93.4491 27.421 93.2534 28.814 92.9359 30.1817C92.8633 30.5612 92.6999 30.9175 92.4597 31.2201C92.0335 31.7053 92.8225 34.544 92.2376 34.8162C91.6435 35.0991 91.0055 35.2785 90.3511 35.3467C90.3239 35.1472 90.2876 34.9477 90.2468 34.7527C90.2423 34.73 90.2377 34.7119 90.2332 34.6892C90.0479 33.8041 89.7054 32.9593 89.222 32.1951C89.3359 33.1007 89.2349 34.0204 88.9272 34.8796C88.8773 35.0202 88.8184 35.1608 88.7549 35.3014C86.1837 34.9205 83.9572 33.1836 82.2022 33.2018C81.1362 29.6269 80.3851 25.9655 79.9576 22.2595C79.8442 21.271 79.7807 20.1736 80.3884 19.3891C80.928 18.6907 81.8485 18.4368 82.7101 18.2509C85.525 17.6427 88.4016 17.3672 91.2807 17.4301L86.2971 16.2692C87.6966 16.1902 89.1001 16.3232 90.4599 16.6637C91.7977 17.0673 93.0628 17.9516 93.5798 19.253C93.9743 20.2461 93.8927 21.3617 93.8111 22.4273Z" fill="#2F2E41"/>
<path d="M65.7429 173.167H60.9456L58.6633 154.663L65.7438 154.664L65.7429 173.167Z" fill="#FFB6B6"/>
<path d="M51.2635 180.245C51.2658 180.783 51.48 181.297 51.8597 181.678C52.2393 182.058 52.7536 182.273 53.291 182.277H62.3217L62.6015 181.697L63.8789 179.061L64.3736 181.697L64.4831 182.277H67.8894L67.8407 181.693L66.9324 170.801L65.7442 170.728L60.6105 170.424L59.3493 170.347V173.599C58.3923 174.617 50.8823 178.465 51.2635 180.245Z" fill="#2F2E41"/>
<path d="M121.945 167.945L117.772 170.313L106.656 155.345L112.814 151.852L121.945 167.945Z" fill="#FFB6B6"/>
<path d="M112.844 181.247C113.11 181.715 113.55 182.058 114.068 182.202C114.587 182.346 115.141 182.278 115.61 182.013L116.084 181.746H116.088L123.464 177.557L123.229 173.992L125.346 176.49L126.907 175.602L128.306 174.807L127.069 172.999L121.81 165.298L120.739 165.825L116.121 168.092L114.993 168.648L116.595 171.474C116.267 172.837 111.636 179.884 112.844 181.247Z" fill="#2F2E41"/>
<path d="M89.5498 82.337C95.1689 82.5389 94.3061 95.8513 96.0602 107.43C97.6252 117.76 102.203 126.484 100.672 126.855L115.824 155.093C109.899 160.596 102.947 164.246 94.2572 164.761C84.8276 156.096 82.2418 136.156 80.0767 115.523L77.7133 133.642L80.8645 162.397L66.9242 165.768L57.282 165.08C49.1096 132.115 64.571 94.8353 71.2274 80.6713L89.5498 82.337Z" fill="#2F2E41"/>
<path d="M95.5109 75.4494L98.0635 67.7918L99.8867 65.2392L100.616 57.9463C100.616 38.2552 96.2238 41.5342 96.2238 41.5342L90.4947 34.6088L83.9767 34.4051L78.8259 34.2441L74.5437 41.3547C72.6568 42.0207 70.9772 43.1689 69.6717 44.6852C68.3663 46.2015 67.4804 48.0331 67.1023 49.9979L65.9171 56.1559L70.3502 69.615L70.1547 68.6149C68.0678 72.4673 68.5987 73.0468 70.3267 75.9393L70.4126 76.9837C70.4924 77.9233 70.8649 78.8142 71.4777 79.5309C72.0904 80.2477 72.9126 80.7541 73.8284 80.9789C92.2912 85.5802 94.2099 93.6291 96.5834 90.3062C97.135 89.5339 94.7944 80.3181 95.5926 80.398C97.7797 80.6167 95.5109 75.4494 95.5109 75.4494Z" fill="#E6E6E6"/>
<path d="M108.145 103.949C107.769 103.603 107.473 103.18 107.277 102.708C107.081 102.236 106.99 101.728 107.009 101.217C107.029 100.707 107.16 100.206 107.392 99.7512C107.624 99.2961 107.952 98.8968 108.354 98.581L103.779 81.6036L108.164 79.1837L113.45 99.3878C113.931 100.103 114.133 100.971 114.018 101.825C113.903 102.68 113.478 103.463 112.824 104.025C112.17 104.587 111.333 104.89 110.47 104.876C109.608 104.862 108.781 104.533 108.145 103.949Z" fill="#FFB6B6"/>
<path d="M95.549 41.0388C95.549 41.0388 103.69 43.518 104.407 47.8465C105.123 52.1749 106.374 55.9935 106.051 57.7642C105.727 59.5348 109.766 71.3852 108.979 72.7483C108.192 74.1114 110.309 74.4066 109.578 76.641C108.847 78.8754 108.439 79.3391 108.903 79.7467C109.367 80.1543 111.367 89.0149 111.367 89.0149L105.268 90.7869L94.0336 62.9508L95.549 41.0388Z" fill="#E6E6E6"/>
<path d="M63.4767 103.95C63.8526 103.603 64.1489 103.18 64.345 102.708C64.5411 102.236 64.6324 101.728 64.6126 101.217C64.5928 100.707 64.4623 100.206 64.2301 99.7512C63.998 99.2961 63.6698 98.8968 63.2682 98.581L67.8427 81.6036L63.4578 79.1837L58.172 99.3878C57.6907 100.103 57.4886 100.971 57.604 101.825C57.7194 102.68 58.1443 103.463 58.7982 104.025C59.452 104.587 60.2895 104.89 61.1518 104.876C62.0141 104.862 62.8413 104.533 63.4767 103.95Z" fill="#FFB6B6"/>
<path d="M76.073 41.0388C76.073 41.0388 67.9317 43.518 67.2155 47.8465C66.4992 52.1749 65.2479 55.9935 65.5713 57.7642C65.8947 59.5348 61.8562 71.3852 62.6433 72.7483C63.4304 74.1114 61.3132 74.4066 62.0442 76.641C62.7752 78.8754 63.1828 79.3391 62.7191 79.7467C62.2554 80.1543 60.2551 89.0149 60.2551 89.0149L66.3545 90.7869L77.5884 62.9508L76.073 41.0388Z" fill="#E6E6E6"/>
<path d="M82.7391 33.2912C88.3441 33.2912 92.8878 28.7475 92.8878 23.1426C92.8878 17.5376 88.3441 12.9939 82.7391 12.9939C77.1342 12.9939 72.5905 17.5376 72.5905 23.1426C72.5905 28.7475 77.1342 33.2912 82.7391 33.2912Z" fill="#FFB6B6"/>
<path d="M93.0356 39.2387C89.2083 35.8354 95.7338 26.1146 90.6368 19.6271L90.0246 19.1689C89.5632 20.047 88.8139 20.7396 87.9023 21.1306C87.7121 20.246 87.3928 19.3942 86.9546 18.6025C87.0646 19.5832 86.9767 20.5759 86.6961 21.5219C86.4104 21.5579 86.2064 21.5168 86.1338 21.388C86.2245 22.1758 83.8166 22.5671 84.3199 21.3417C84.3236 21.3294 84.3281 21.3173 84.3335 21.3056C83.7123 22.5568 82.4335 23.1386 81.3225 23.8337C80.2115 24.5236 79.0823 25.6769 79.1912 27.1083C79.2819 28.2668 80.1661 29.1317 81.055 29.7084C81.9438 30.2902 82.9414 30.7433 83.5853 31.6443C84.6691 33.1581 84.4152 35.3772 83.8665 37.2204C83.7568 37.5148 83.5773 37.7782 83.3436 37.988C83.1098 38.1978 82.8286 38.3478 82.5242 38.4252C82.3433 37.4326 82.0017 36.4761 81.5129 35.5934C81.6271 36.6189 81.5268 37.6569 81.2182 38.6415C80.5573 38.6705 79.8973 38.565 79.2784 38.3313C78.6595 38.0977 78.0945 37.7407 77.6176 37.2822L78.3024 40.32C77.2004 40.0883 76.0894 40.3509 74.9694 40.5517C74.9403 40.2079 74.8934 39.8659 74.8288 39.5271C74.6525 38.5084 74.3061 37.5268 73.8039 36.6232C73.9441 37.8788 73.7615 39.1495 73.2734 40.3148C73.219 40.4487 73.16 40.5826 73.0965 40.7113C71.3733 40.5877 69.6547 39.5837 69.9812 36.9733C70.1248 36.1356 70.4738 35.3467 70.9969 34.677C71.8858 33.4309 67.3556 32.0974 67.6322 30.594C68.0448 28.3646 72.176 26.3926 71.8495 24.1426C71.5593 22.1037 71.6161 17.5012 72.7383 15.9149C74.3594 13.6232 72.5611 8.88223 84.0841 11.5745C88.3709 12.5761 89.8568 8.37103 96.3188 21.212C97.4266 23.4136 93.3984 22.6567 95.7655 27.376C98.1326 32.0954 91.3533 35.8354 93.0356 39.2387Z" fill="#2F2E41"/>
<path d="M6.98729e-06 182.422C-0.00123099 182.163 0.334667 181.953 0.7503 181.952H336.993C337.41 181.952 337.748 182.162 337.748 182.422C337.748 182.681 337.41 182.892 336.993 182.892H0.754791C0.339162 182.893 0.00123589 182.683 6.98729e-06 182.425V182.422Z" fill="#CCCCCC"/>
<path d="M172.751 85.6783C173.163 85.5355 173.538 85.3043 173.85 85.0009C174.162 84.6976 174.404 84.3294 174.559 83.9225C174.713 83.5155 174.777 83.0795 174.745 82.6453C174.713 82.2112 174.586 81.7893 174.373 81.4095L186.759 67.2092L181.316 66.4244L170.118 80.3463C169.504 80.7461 169.058 81.3573 168.864 82.0642C168.67 82.7711 168.742 83.5245 169.067 84.1817C169.391 84.8389 169.946 85.3543 170.625 85.6301C171.304 85.9059 172.06 85.9231 172.751 85.6783Z" fill="#FFB8B8"/>
<path d="M178.173 77.7769L179.932 75.8357L181.63 75.6897L181.746 75.5451L182.189 74.979L182.359 73.4021L183.663 73.0962L186.57 69.3836L187.014 68.6447L199.215 54.3888L201.704 50.2439L202.095 49.4016L203.314 46.7795L203.154 40.1669C203.42 39.5959 203.571 38.9775 203.596 38.3477C203.622 37.7179 203.522 37.0893 203.302 36.4986C203.232 36.3071 203.15 36.1203 203.056 35.9393L202.987 35.8107C202.809 35.4941 202.595 35.1988 202.35 34.9304L202.346 34.9241C201.914 34.4511 201.39 34.0723 200.805 33.8116C200.349 33.6034 199.863 33.4688 199.365 33.4126C198.215 33.2852 197.059 33.576 196.106 34.2318L194.609 35.2672L193.25 36.2142L190.138 41.9415L189.934 42.3149L189.927 42.3241L180.346 59.9508L177.458 65.2657L177.018 66.0729L176.977 68.4342L175.588 68.6971L173.948 69.925L173.784 72.0159L173.012 75.3875L172.894 75.5775L173.613 76.0034L173.683 76.0431L173.814 76.1584L175.643 77.7286L176.752 78.6835L176.789 78.7132L177.077 78.9848L178.173 77.7769Z" fill="#3F3D56"/>
<path d="M72.9854 17.1218C73.0082 17.1305 73.0282 17.1391 73.051 17.1477C73.0944 17.1669 73.1392 17.1832 73.1849 17.1965C73.4761 17.3034 73.7796 17.3732 74.0883 17.4041C74.22 17.4183 74.3523 17.4253 74.4847 17.4251C74.6544 17.4256 74.8241 17.4146 74.9924 17.3921C75.1795 17.3692 75.3646 17.3315 75.5459 17.2795C75.6319 17.2564 75.7167 17.229 75.7999 17.1974C76.3668 16.996 76.8792 16.6659 77.2969 16.233C77.7146 15.8001 78.0263 15.2763 78.2073 14.7026V14.6997C78.2266 14.6436 78.2429 14.5866 78.2562 14.5287C78.341 14.2078 78.384 13.8772 78.3842 13.5452V13.5395C78.3863 12.73 78.1339 11.9403 77.6627 11.282C77.3786 10.8792 77.0503 10.8119 77.2345 10.3513C77.8218 8.88197 75.4187 7.68088 74 8.32694C73.9489 8.32206 73.8975 8.32003 73.8461 8.32085C72.8908 8.31844 72.5364 9.72913 71.9669 10.5233L71.9834 10.5287C72.1277 10.5792 72.2525 10.6735 72.3405 10.7984C72.4285 10.9233 72.4752 11.0726 72.4742 11.2254C72.4732 11.3782 72.4244 11.5269 72.3348 11.6506C72.2451 11.7743 72.119 11.8669 71.9741 11.9155C71.5949 12.039 71.2118 12.1481 70.8248 12.2428C69.5482 13.7505 71.0116 18.1611 72.9854 17.1218Z" fill="#2F2E41"/>
<path d="M77.551 10.9009C77.603 12.2558 77.2557 13.5961 76.5522 14.7553C75.8487 15.9144 74.8201 16.8412 73.5942 17.4205C73.0964 17.646 72.6629 16.9078 73.1643 16.6807C74.2596 16.1754 75.1801 15.356 75.8088 14.3266C76.4376 13.2971 76.7462 12.104 76.6955 10.8988C76.667 10.3486 77.5226 10.3524 77.551 10.9009Z" fill="#6C63FF"/>
</g>
<defs>
<clipPath id="clip0_3_8">
<rect width="337.748" height="183" fill="white"/>
</clipPath>
</defs>
</svg>
