<svg width="231" height="231" viewBox="0 0 231 231" fill="none" xmlns="http://www.w3.org/2000/svg">
<g clip-path="url(#clip0_4_105)">
<path d="M117.567 150.794C138.274 150.794 155.06 134.008 155.06 113.3C155.06 92.5932 138.274 75.8068 117.567 75.8068C96.8596 75.8068 80.0731 92.5932 80.0731 113.3C80.0731 134.008 96.8596 150.794 117.567 150.794Z" fill="#FFB6B6"/>
<path d="M96.043 156.338L94.3491 139.216L128.175 132.891L148.148 181.523L113.411 221.47L88.6614 172.838L96.043 156.338Z" fill="#FFB6B6"/>
<path d="M93.8058 147.787L101.201 149.458C101.201 149.458 95.3875 131.023 97.3607 129.263C99.3339 127.504 104.169 130.277 104.169 130.277L109.25 135.973L115.44 129.672C115.44 129.672 122.159 121.317 124.79 118.97C127.421 116.624 123.195 107.914 123.195 107.914C123.195 107.914 162.227 97.3888 147.703 78.457C147.703 78.457 139.188 63.6137 136.415 68.449C133.642 73.2843 130.335 65.6049 130.335 65.6049L120.238 67.525C120.238 67.525 100.31 55.775 81.3964 80.9115C62.4826 106.048 93.8058 147.787 93.8058 147.787Z" fill="#2F2E41"/>
<path d="M188.083 205.36C167.592 221.973 142.243 231 115.5 231C91.0801 231 67.8194 223.471 48.3624 209.515C48.3972 209.151 48.4319 208.79 48.4623 208.43C48.979 202.785 49.4393 197.297 49.7432 192.746C50.9199 175.078 92.1395 163.302 92.1395 163.302C92.1395 163.302 92.3262 163.489 92.6997 163.815C94.9749 165.812 104.211 173.055 120.407 175.078C134.848 176.884 139.603 168.317 141.04 164.214C141.475 162.964 141.605 162.126 141.605 162.126L184.001 182.147C186.767 186.098 187.848 194.609 188.061 204.174C188.07 204.57 188.078 204.96 188.083 205.36Z" fill="#638FFF"/>
<path d="M197.171 33.8294C175.356 12.0146 146.351 0 115.5 0C84.6493 0 55.6441 12.0146 33.8294 33.8294C12.0146 55.6441 0 84.6494 0 115.5C0 143.659 10.0086 170.28 28.3496 191.3C30.0995 193.311 31.9275 195.269 33.8294 197.171C34.2766 197.618 34.7282 198.065 35.1841 198.499C36.3999 199.676 37.6374 200.827 38.8966 201.943C39.6608 202.624 40.4337 203.293 41.2153 203.949C41.8275 204.465 42.4398 204.973 43.0607 205.473C43.0737 205.486 43.0824 205.494 43.0954 205.503C44.8192 206.893 46.5734 208.23 48.3624 209.515C67.8194 223.471 91.08 231 115.5 231C142.243 231 167.592 221.973 188.083 205.36C189.754 204.005 191.391 202.598 192.998 201.144C194.418 199.858 195.807 198.534 197.171 197.171C197.601 196.741 198.03 196.307 198.452 195.868C199.624 194.661 200.762 193.432 201.873 192.186C220.705 171.031 231 144.058 231 115.5C231 84.6494 218.985 55.6441 197.171 33.8294ZM201.591 191.105C200.505 192.338 199.394 193.554 198.256 194.739C196.485 196.584 194.657 198.373 192.768 200.097C192.051 200.757 191.326 201.4 190.592 202.038C189.759 202.763 188.916 203.475 188.061 204.174C181.318 209.711 173.932 214.487 166.033 218.378C162.911 219.919 159.711 221.321 156.437 222.576C143.719 227.457 129.916 230.132 115.5 230.132C101.588 230.132 88.249 227.639 75.9043 223.08C70.8371 221.213 65.9392 218.994 61.2367 216.454C60.5463 216.081 59.8603 215.703 59.1786 215.316C55.592 213.284 52.1227 211.065 48.7923 208.669C48.6837 208.59 48.5708 208.508 48.4623 208.43C46.0915 206.719 43.7858 204.917 41.5583 203.024C40.742 202.333 39.9344 201.634 39.1397 200.918C37.8458 199.767 36.5779 198.582 35.3404 197.366C32.9957 195.069 30.7551 192.677 28.6145 190.189C11.3286 170.111 0.868421 144.006 0.868421 115.5C0.868421 52.292 52.292 0.868421 115.5 0.868421C178.708 0.868421 230.132 52.292 230.132 115.5C230.132 144.444 219.35 170.914 201.591 191.105Z" fill="#3F3D56"/>
</g>
<defs>
<clipPath id="clip0_4_105">
<rect width="231" height="231" fill="white"/>
</clipPath>
</defs>
</svg>
