<svg width="314" height="231" viewBox="0 0 314 231" fill="none" xmlns="http://www.w3.org/2000/svg">
<g clip-path="url(#clip0_4_153)">
<path opacity="0.1" d="M3.37073 110.75C8.31579 129.861 18.7753 146.382 35.3044 154.39C69.6664 171.033 147.162 162.45 204.999 152.597C234.917 147.501 261.214 133.437 280.317 113.645L3.37073 110.75Z" fill="#6C63FF"/>
<path opacity="0.1" d="M306.668 20.7909H274.933C273.427 20.7909 272.192 19.6749 272.192 18.3112C272.192 16.9476 273.427 15.8287 274.933 15.8287H280.422C278.913 15.8287 277.681 14.7128 277.681 13.3462C277.681 11.9797 278.913 10.8666 280.422 10.8666H276.505C274.996 10.8666 273.76 9.75062 273.76 8.38411C273.76 7.0176 274.996 5.90446 276.505 5.90446H293.068C289.393 4.3586 285.097 3.2597 280.146 2.68178C234.98 -2.56505 218.855 0.905312 213.167 4.47247C206.077 8.97412 198.201 12.0977 189.953 13.6793C162.088 18.8806 109.976 25.1381 62.7427 11.6865C39.2672 4.98776 21.8186 16.2928 11.3619 35.1905H312.179C311.786 29.6988 310.611 24.6257 308.453 20.1873C307.942 20.5819 307.313 20.7944 306.668 20.7909Z" fill="#6C63FF"/>
<path opacity="0.1" d="M13.494 79.7131C12.2751 90.8279 12.6894 102.061 14.7238 113.056L293.344 122.277C301.014 114.322 307.53 105.332 312.703 95.5675L13.494 79.7131ZM123.692 103.499H118.206C119.715 103.499 120.95 104.618 120.95 105.981C120.95 107.345 119.715 108.461 118.206 108.461H86.4713C84.9653 108.461 83.7298 107.345 83.7298 105.981C83.7298 104.618 84.9653 103.499 86.4713 103.499H91.9601C90.4513 103.499 89.2186 102.383 89.2186 101.019C89.2186 99.6556 90.4513 98.5368 91.9601 98.5368H88.04C86.5311 98.5368 85.2955 97.4208 85.2955 96.0572C85.2955 94.6935 86.5311 93.5747 88.04 93.5747H119.774C121.283 93.5747 122.516 94.6907 122.516 96.0572C122.516 97.4237 121.283 98.5368 119.774 98.5368H123.692C125.2 98.5368 126.433 99.6528 126.433 101.019C126.433 102.386 125.2 103.499 123.692 103.499Z" fill="#6C63FF"/>
<path opacity="0.1" d="M312.191 35.3613L8.00542 42.0515C4.30446 50.6577 1.85043 60.3884 0.720215 70.4721H306.861C308.854 64.5725 310.332 58.5117 311.28 52.3573C312.193 46.4329 312.558 40.7021 312.191 35.3613ZM62.4808 57.2967H56.9948C58.5037 57.2967 59.7392 58.4155 59.7392 59.7792C59.7392 61.1428 58.5037 62.2616 56.9948 62.2616H25.2605C23.7545 62.2616 22.5189 61.1428 22.5189 59.7792C22.5189 58.4155 23.7545 57.2967 25.2605 57.2967H30.7493C29.2404 57.2967 28.0077 56.1807 28.0077 54.817C28.0077 53.4534 29.2404 52.3345 30.7493 52.3345H26.8291C25.3202 52.3345 24.0847 51.2185 24.0847 49.8549C24.0847 48.4912 25.3202 47.3724 26.8291 47.3724H58.5635C60.0723 47.3724 61.305 48.4884 61.305 49.8549C61.305 51.2214 60.0723 52.3345 58.5635 52.3345H62.4808C63.9896 52.3345 65.2223 53.4534 65.2223 54.817C65.2223 56.1807 63.9896 57.2967 62.4808 57.2967Z" fill="#6C63FF"/>
<path opacity="0.1" d="M155.179 222.365C225.457 222.365 282.429 217.124 282.429 210.659C282.429 204.194 225.457 198.953 155.179 198.953C84.9001 198.953 27.9281 204.194 27.9281 210.659C27.9281 217.124 84.9001 222.365 155.179 222.365Z" fill="#6C63FF"/>
<path d="M284.872 113.967C284.87 113.947 284.87 113.927 284.872 113.907C284.872 113.876 284.872 113.847 284.872 113.819C284.815 113.493 284.692 113.182 284.51 112.905C283.859 111.862 282.951 111.004 281.874 110.411C279.995 109.381 277.413 108.939 276.661 106.972C276.431 106.363 276.425 105.7 276.311 105.062C276.112 104.068 275.655 103.145 274.986 102.384C274.317 101.623 273.459 101.051 272.499 100.726C271.605 100.427 270.64 100.345 269.772 99.9745C267.83 99.1489 266.805 97.1134 265.937 95.2316C264.814 92.8022 263.69 90.3719 262.566 87.9407C261.712 88.3705 260.608 88.1684 259.808 87.6304C259.037 87.0565 258.423 86.2977 258.023 85.424C256.864 83.175 256.366 80.627 255.005 78.4861C253.644 76.3453 250.925 74.6542 248.523 75.5851C248.054 75.8195 247.568 76.0203 247.071 76.1858C245.012 76.667 242.735 74.3154 240.973 75.457C240.68 75.6448 240.441 75.9058 240.281 76.2143C240.279 76.1953 240.279 76.1763 240.281 76.1574C240.052 76.6204 239.924 77.127 239.905 77.6434C239.905 77.7488 239.905 77.8513 239.905 77.9509C239.905 77.968 239.905 77.9851 239.905 78.0021C239.905 78.4121 239.931 78.8278 239.936 79.2434C239.943 79.5925 239.916 79.9413 239.857 80.2854V80.2569C239.823 80.4505 239.774 80.641 239.709 80.8263C239.25 82.0561 237.981 82.8618 237.386 84.0176V83.9607C237.319 84.0864 237.261 84.2168 237.212 84.3507C237.106 84.6537 237.051 84.9721 237.05 85.2931C236.998 87.4652 239.302 89.5093 239.569 91.8409C239.76 93.4921 240.139 94.0216 241.542 94.9554L241.85 95.1604C241.727 95.1604 241.602 95.1775 241.462 95.1803C241.408 95.1813 241.354 95.187 241.3 95.1974C241.052 95.1292 240.793 95.1168 240.54 95.1611C240.287 95.2054 240.047 95.3053 239.837 95.4536C238.761 96.3077 236.216 95.6501 235.085 95.4536C233.955 95.2572 230.083 95.7867 229.542 97.9333C229.002 100.08 228.073 104.51 228.073 104.51C228.073 104.51 228.073 107.319 227.729 107.843C227.716 107.88 227.716 107.92 227.729 107.957C227.729 108.746 227.757 113.486 226.994 114.707C226.807 114.992 226.821 115.621 226.96 116.395C226.157 117.429 225.403 118.636 225.537 119.427C225.782 121.047 229.067 126.14 233.776 123.413C233.776 123.413 236.455 118.513 233.084 115.909L233.229 115.339C234.248 116.592 235.003 117.491 235.003 117.491C235.003 117.491 235.043 117.597 235.105 117.776H235.003C235.443 118.973 235.709 120.227 235.794 121.5C235.781 121.966 235.697 122.428 235.544 122.869H235.632C235.606 122.966 235.578 123.063 235.544 123.154C235.378 123.635 235.069 124.053 234.658 124.352C232.304 126.021 229.608 137.935 229.608 137.935C229.608 137.935 224.267 157.194 223.2 158.29C222.317 159.19 227.863 161.724 232.025 161.422C232.606 161.387 233.18 161.278 233.733 161.097C233.759 161.382 233.787 161.667 233.816 161.926C233.904 162.78 233.995 163.571 234.052 163.819C234.2 164.44 234.493 170.777 234.493 170.777C234.493 170.777 233.892 174.893 234.038 177.757C234.038 177.954 234.063 178.142 234.08 178.327L233.562 178.406C232.776 180.172 236.013 194.899 236.455 196.137C236.747 197.113 236.912 198.122 236.944 199.14C236.944 199.14 236.66 200.188 236.896 200.76C237.043 201.11 237.139 201.479 237.181 201.856C237.181 201.856 236.987 202.807 237.28 203.428C237.574 204.048 237.232 205.136 237.232 205.136C237.232 205.136 237.135 209.426 236.253 211.761C236.012 212.389 235.942 213.069 236.05 213.733C236.157 214.397 236.438 215.021 236.865 215.541C236.926 215.623 236.993 215.7 237.064 215.772C237.064 215.772 241.932 215.812 242.789 215.772H242.9C243.245 215.724 244.127 211.863 243.341 210.004C242.556 208.145 243.245 205.856 243.245 205.856V202.474C243.245 202.474 244.127 201.66 243.245 199.912C242.362 198.164 242.507 197.634 242.507 197.634C242.507 197.634 243.489 194.822 242.459 193.916C241.428 193.011 242.655 189.578 242.655 189.578L243.003 178.133C242.821 178.074 242.635 178.026 242.447 177.991C242.427 177.803 242.408 177.609 242.388 177.404C242.185 175.332 242.012 172.513 242.462 171.711C242.911 170.908 243.128 163.899 243.199 159.028L247.686 159.198C247.78 161.476 247.879 163.554 247.942 163.819C248.09 164.44 248.386 170.777 248.386 170.777C248.386 170.777 247.782 174.893 247.928 177.757C247.928 177.954 247.953 178.142 247.97 178.327L247.452 178.406C246.666 180.172 249.903 194.899 250.345 196.137C250.637 197.113 250.803 198.122 250.837 199.14C250.837 199.14 250.553 200.188 250.786 200.76C250.933 201.11 251.029 201.479 251.071 201.856C251.071 201.856 250.877 202.807 251.17 203.428C251.464 204.048 251.122 205.136 251.122 205.136C251.122 205.136 251.025 209.426 250.143 211.761C249.906 212.39 249.84 213.07 249.951 213.733C250.062 214.396 250.346 215.018 250.775 215.536C250.836 215.617 250.902 215.694 250.974 215.766C250.974 215.766 255.842 215.806 256.699 215.766H256.81C257.154 215.718 258.037 211.858 257.251 209.998C256.466 208.139 257.154 205.851 257.154 205.851V202.474C257.154 202.474 258.037 201.66 257.154 199.912C256.272 198.164 256.417 197.634 256.417 197.634C256.417 197.634 257.399 194.822 256.369 193.916C255.338 193.011 256.565 189.578 256.565 189.578L256.918 178.133C256.732 178.073 256.542 178.025 256.349 177.991C256.329 177.803 256.309 177.609 256.289 177.404C256.087 175.332 255.913 172.513 256.363 171.711C256.725 171.053 256.932 166.817 257.026 162.68C257.026 162.396 257.026 162.111 257.049 161.826C259.111 161.74 261.163 161.51 263.193 161.137C263.193 161.137 260.793 152.651 261.527 151.27C261.843 150.675 261.388 147.506 260.764 144.093C261.634 144.797 262.715 145.188 263.833 145.203C264.907 147.267 268.172 152.016 270.011 152.747C272.169 153.601 270.549 146.029 269.521 144.933C269.035 144.334 268.626 143.677 268.303 142.977C268.331 142.943 268.363 142.914 268.391 142.883C268.42 142.852 268.442 134.826 267.95 134.971C267.457 135.117 266.871 133.779 266.871 133.779L265.351 120.435L264.713 114.85C265.245 115.242 265.877 115.493 266.421 115.883C267.901 116.968 268.385 118.872 269.035 120.558C269.57 121.944 270.321 123.319 271.554 124.19C272.787 125.061 274.595 125.292 275.824 124.409C276.963 123.581 277.299 122.086 277.55 120.723C279.616 121.449 282.125 119.507 281.857 117.386C281.792 116.862 281.598 116.29 281.871 115.832C282.418 114.926 284.149 115.453 284.718 114.559C284.814 114.405 284.863 114.226 284.86 114.044C284.869 114.004 284.872 113.987 284.872 113.967ZM257.226 121.306C257.194 121.816 257.895 125.91 258.464 129.149C257.997 127.131 257.061 124.976 255.216 123.498C255.216 123.498 255.216 123.396 255.193 123.214H255.216C255.216 123.214 255.139 122.399 255.127 121.241C255.131 120.214 255.207 119.188 255.355 118.172V118.146H255.318C255.318 118.061 255.341 117.973 255.355 117.887C255.468 117.03 255.701 116.192 256.047 115.399C256.2 115.088 256.376 114.789 256.574 114.505C256.878 117.258 257.254 120.791 257.226 121.306ZM258.757 130.792C259.008 132.19 259.187 133.172 259.187 133.172L260.699 143.552V143.6C259.885 139.219 258.846 134.601 258.846 134.601C258.951 133.332 258.922 132.055 258.757 130.792Z" fill="url(#paint0_linear_4_153)"/>
<path d="M240.23 92.4102C239.945 89.7797 237.098 87.5107 237.952 85.0083C238.416 83.6446 239.868 82.8105 240.358 81.4553C240.682 80.5614 240.537 79.5792 240.54 78.6284C240.543 77.6775 240.765 76.6156 241.556 76.0889C243.264 74.9502 245.462 77.2932 247.455 76.8149C247.937 76.6501 248.406 76.4503 248.859 76.2171C251.185 75.2918 253.815 76.9772 255.122 79.1067C256.429 81.2361 256.918 83.7756 258.04 86.0132C258.423 86.8773 259.016 87.6319 259.765 88.2082C260.539 88.7434 261.598 88.9455 262.435 88.5185L265.695 95.7781C266.549 97.6485 267.529 99.6755 269.396 100.498C270.233 100.865 271.167 100.948 272.032 101.247C272.973 101.579 273.81 102.152 274.459 102.909C275.109 103.666 275.548 104.58 275.733 105.56C275.844 106.198 275.847 106.858 276.072 107.465C276.798 109.423 279.295 109.862 281.114 110.881C282.166 111.474 283.049 112.328 283.676 113.361C283.961 113.853 284.206 114.499 283.901 114.983C283.352 115.871 281.681 115.348 281.151 116.25C280.883 116.706 281.071 117.275 281.151 117.799C281.41 119.908 278.982 121.841 276.983 121.118C276.741 122.476 276.414 123.965 275.315 124.788C274.133 125.67 272.383 125.437 271.19 124.572C269.997 123.706 269.274 122.337 268.756 120.956C268.126 119.276 267.657 117.38 266.225 116.301C265.707 115.914 265.086 115.664 264.579 115.274C263.44 114.402 262.871 112.965 262.464 111.573C261.937 109.836 261.519 108.051 260.756 106.411C259.993 104.771 258.786 103.245 257.132 102.497C255.58 101.799 253.792 101.845 252.19 101.278C249.431 100.305 247.39 97.9844 244.645 96.8912C243.768 96.5224 242.937 96.0524 242.168 95.4905C240.788 94.5824 240.412 94.0557 240.23 92.4102Z" fill="#3F3D56"/>
<g opacity="0.1">
<path d="M240.486 80.8974C240.545 80.786 240.596 80.671 240.64 80.5529C240.961 79.659 240.819 78.6768 240.822 77.7259C240.822 77.4088 240.851 77.0924 240.91 76.7808C240.647 77.3433 240.52 77.9594 240.537 78.58C240.534 79.3458 240.625 80.1486 240.486 80.8974Z" fill="black"/>
<path d="M275.582 123.894C274.401 124.774 272.65 124.543 271.457 123.675C270.264 122.807 269.538 121.443 269.035 120.056C268.405 118.377 267.938 116.481 266.504 115.402C265.988 115.015 265.365 114.761 264.861 114.374C263.722 113.503 263.153 112.065 262.743 110.687C262.216 108.951 261.801 107.166 261.035 105.526C260.269 103.886 259.068 102.36 257.411 101.611C255.862 100.914 254.074 100.959 252.471 100.393C249.71 99.4193 247.669 97.0991 244.927 96.0058C244.049 95.636 243.217 95.166 242.447 94.6052C241.098 93.6742 240.739 93.1476 240.54 91.5049C240.255 89.0395 237.75 86.8901 238.14 84.567C238.077 84.6927 238.02 84.822 237.972 84.9542C237.118 87.4595 239.965 89.7284 240.25 92.3561C240.435 93.9988 240.819 94.5255 242.157 95.4564C242.927 96.0172 243.759 96.4872 244.637 96.8571C247.378 97.9503 249.419 100.273 252.181 101.244C253.784 101.814 255.572 101.765 257.12 102.463C258.777 103.211 259.967 104.74 260.744 106.377C261.522 108.014 261.937 109.793 262.453 111.539C262.871 112.916 263.42 114.354 264.571 115.225C265.086 115.612 265.709 115.866 266.213 116.253C267.637 117.332 268.115 119.228 268.744 120.908C269.262 122.288 269.988 123.655 271.181 124.52C272.374 125.386 274.125 125.619 275.306 124.74C276.061 124.17 276.445 123.302 276.698 122.371C276.473 122.971 276.087 123.498 275.582 123.894Z" fill="black"/>
<path d="M281.433 115.356C281.324 115.56 281.276 115.792 281.296 116.022C281.94 115.388 283.391 115.76 283.898 114.943C284.016 114.742 284.062 114.506 284.029 114.274C283.369 114.901 281.917 114.528 281.433 115.356Z" fill="black"/>
<path d="M277.251 120.224C277.197 120.509 277.143 120.814 277.074 121.11C278.817 121.654 280.829 120.256 281.114 118.491C280.422 119.849 278.714 120.757 277.251 120.224Z" fill="black"/>
</g>
<path d="M243.908 93.7797C243.908 93.7797 244.856 95.6928 242.057 95.7326C239.259 95.7725 243.859 108.156 243.859 108.156L248.511 114.078L254.299 110.946L254.632 102.309L255.059 97.0906C255.059 97.0906 249.65 95.3341 250.646 93.011C251.643 90.6879 243.908 93.7797 243.908 93.7797Z" fill="#FBBEBE"/>
<path d="M260.707 144.272C260.707 144.272 264.124 147.634 268.109 143.173L265.049 139.925H261.177L260.707 144.272Z" fill="#575A89"/>
<path opacity="0.1" d="M261.077 139.925L260.608 144.272C260.608 144.272 264.024 147.634 268.01 143.173" fill="black"/>
<path d="M266.825 140.517C266.825 140.517 268.2 144.124 269.197 145.214C270.193 146.305 271.759 153.849 269.672 152.995C267.585 152.141 263.6 145.784 263.361 144.693C263.122 143.603 263.03 140.517 263.03 140.517H266.825Z" fill="#FBBEBE"/>
<path d="M236.981 159.022L255.389 159.734L253.254 151.95L243.982 151.762L236.981 159.022Z" fill="#575A89"/>
<path opacity="0.1" d="M239.541 159.022L257.952 159.734L255.816 151.95L246.541 151.762L239.541 159.022Z" fill="black"/>
<path d="M243.005 171.87C242.57 172.681 242.738 175.488 242.934 177.564C243.059 178.885 243.196 179.901 243.196 179.901C243.196 179.901 236.315 182.036 235.273 180.186C235.008 179.716 234.877 178.893 234.832 177.928C234.69 175.081 235.273 170.979 235.273 170.979C235.273 170.979 234.988 164.67 234.846 164.052C234.789 163.805 234.701 163.019 234.616 162.168C234.49 160.904 234.371 159.497 234.371 159.497L243.765 154.515C243.765 154.515 243.765 155.449 243.748 156.887C243.697 161.402 243.546 170.874 243.005 171.87Z" fill="#FBBEBE"/>
<path opacity="0.1" d="M243.196 179.901C243.196 179.901 236.315 182.036 235.273 180.186C235.008 179.716 234.877 178.893 234.832 177.928C236.255 177.712 240.588 177.114 242.934 177.564C243.059 178.885 243.196 179.901 243.196 179.901Z" fill="black"/>
<path d="M243.432 215.772H243.324C242.496 215.803 237.787 215.772 237.787 215.772C237.718 215.7 237.653 215.624 237.593 215.544C237.177 215.023 236.902 214.404 236.795 213.745C236.688 213.087 236.752 212.413 236.981 211.786C237.835 209.46 237.929 205.19 237.929 205.19C237.929 205.19 238.262 204.1 237.978 203.482C237.693 202.864 237.881 201.916 237.881 201.916C237.837 201.541 237.741 201.174 237.596 200.826C237.36 200.256 237.645 199.212 237.645 199.212C237.612 198.199 237.452 197.195 237.169 196.222C236.742 194.99 233.611 180.328 234.371 178.572C234.371 178.572 241.013 177.433 243.529 178.287L243.196 189.674C243.196 189.674 242.009 193.091 243.005 193.993C244.002 194.896 243.054 197.694 243.054 197.694C243.054 197.694 242.911 198.215 243.765 199.972C244.62 201.728 243.765 202.534 243.765 202.534V205.902C243.765 205.902 243.102 208.179 243.859 210.03C244.617 211.88 243.765 215.712 243.432 215.772Z" fill="#3F3D56"/>
<path d="M256.468 171.87C256.033 172.681 256.201 175.488 256.397 177.564C256.522 178.885 256.659 179.901 256.659 179.901C256.659 179.901 249.778 182.036 248.736 180.186C248.471 179.716 248.34 178.893 248.295 177.928C248.153 175.081 248.736 170.979 248.736 170.979C248.736 170.979 248.452 164.67 248.309 164.052C248.232 163.719 248.099 160.542 247.993 157.692C247.905 155.261 247.834 153.063 247.834 153.063L257.228 154.515C257.228 154.515 257.228 158.646 257.112 162.891C257.009 167.007 256.819 171.227 256.468 171.87Z" fill="#FBBEBE"/>
<path opacity="0.1" d="M256.659 179.901C256.659 179.901 249.778 182.036 248.736 180.186C248.471 179.716 248.34 178.893 248.295 177.928C249.718 177.712 254.051 177.114 256.397 177.564C256.522 178.885 256.659 179.901 256.659 179.901Z" fill="black"/>
<path d="M256.895 215.772H256.787C255.959 215.803 251.25 215.772 251.25 215.772C251.181 215.7 251.116 215.624 251.056 215.544C250.64 215.023 250.365 214.404 250.258 213.745C250.151 213.087 250.215 212.413 250.444 211.786C251.298 209.449 251.384 205.179 251.384 205.179C251.384 205.179 251.717 204.088 251.432 203.471C251.148 202.853 251.335 201.905 251.335 201.905C251.292 201.53 251.196 201.163 251.051 200.814C250.814 200.245 251.099 199.2 251.099 199.2C251.067 198.188 250.907 197.184 250.624 196.211C250.197 194.978 247.065 180.317 247.825 178.56C247.825 178.56 254.467 177.421 256.984 178.276L256.651 189.663C256.651 189.663 255.463 193.079 256.46 193.982C257.456 194.884 256.508 197.683 256.508 197.683C256.508 197.683 256.366 198.204 257.22 199.96C258.074 201.717 257.22 202.523 257.22 202.523V205.89C257.22 205.89 256.557 208.168 257.314 210.018C258.071 211.869 257.228 215.712 256.895 215.772Z" fill="#3F3D56"/>
<path opacity="0.1" d="M247.609 96.0173C251.304 96.0173 254.299 93.0219 254.299 89.327C254.299 85.6321 251.304 82.6368 247.609 82.6368C243.914 82.6368 240.919 85.6321 240.919 89.327C240.919 93.0219 243.914 96.0173 247.609 96.0173Z" fill="black"/>
<path d="M247.609 95.7326C251.304 95.7326 254.299 92.7373 254.299 89.0424C254.299 85.3475 251.304 82.3522 247.609 82.3522C243.914 82.3522 240.919 85.3475 240.919 89.0424C240.919 92.7373 243.914 95.7326 247.609 95.7326Z" fill="#FBBEBE"/>
<path opacity="0.1" d="M234.371 159.497L243.765 154.515C243.765 154.515 243.765 155.449 243.748 156.887C242.376 157.707 240.307 158.939 238.317 160.104C237.235 160.739 236.179 161.354 235.273 161.869C235.063 161.983 234.843 162.078 234.616 162.153C234.49 160.904 234.371 159.497 234.371 159.497Z" fill="black"/>
<path opacity="0.1" d="M257.228 154.504C257.228 154.504 257.228 158.635 257.112 162.879H257.078C256.376 162.904 255.673 162.883 254.974 162.814C253.747 162.683 252.765 162.359 252.412 161.715C251.697 160.462 249.696 158.868 248.005 157.681C247.916 155.25 247.845 153.052 247.845 153.052L257.228 154.504Z" fill="black"/>
<path d="M255.48 118.323C255.242 120.176 255.197 122.049 255.344 123.911C259.66 127.47 258.854 134.966 258.854 134.966C258.854 134.966 262.176 150.151 261.465 151.526C260.753 152.901 263.076 161.348 263.076 161.348C261.096 161.723 259.091 161.953 257.078 162.037C256.376 162.062 255.673 162.04 254.974 161.971C253.747 161.84 252.765 161.516 252.411 160.872C251.085 158.549 245.343 155.085 245.343 155.085C245.343 155.085 241.704 157.265 238.317 159.25C237.235 159.885 236.178 160.5 235.273 161.015C234.538 161.404 233.727 161.627 232.896 161.667C228.868 161.966 223.501 159.443 224.355 158.549C225.4 157.456 230.573 138.288 230.573 138.288C230.573 138.288 233.181 126.425 235.458 124.765C235.857 124.464 236.155 124.048 236.312 123.572C237.092 121.406 235.788 117.933 235.788 117.933C235.788 117.933 228.435 108.871 228.765 108.347C229.095 107.823 229.098 105.028 229.098 105.028C229.098 105.028 230.001 100.615 230.522 98.4799C231.043 96.3447 234.792 95.8209 235.882 96.0116C236.973 96.2024 239.438 96.8657 240.48 96.0116C241.522 95.1576 243.281 96.3447 243.281 96.3447L247.603 97.5347L251.489 95.2572C251.489 95.2572 255.384 95.4565 255.717 95.9775C256.05 96.4984 261.174 97.4977 261.174 97.4977C263.782 99.2514 263.688 107.604 263.688 107.604C263.688 107.604 257.425 113.059 256.144 115.86C255.812 116.647 255.589 117.476 255.48 118.323Z" fill="#575A89"/>
<path d="M262.27 106.448L263.694 107.587L265.166 120.825L266.635 134.112C266.635 134.112 267.204 135.441 267.679 135.299C268.155 135.156 268.106 143.173 268.106 143.173C268.106 143.173 262.657 139.822 260.704 144.272L259.184 133.542C259.184 133.542 257.237 122.582 257.285 121.728C257.334 120.873 256.289 111.621 256.289 111.621L262.27 106.448Z" fill="#575A89"/>
<path d="M229.816 107.066L228.771 108.347C228.771 108.347 228.868 113.85 228.059 115.18C227.251 116.509 230.291 124.29 231.43 123.814C232.569 123.339 235.131 111.194 235.131 111.052C235.131 110.909 229.816 107.066 229.816 107.066Z" fill="#575A89"/>
<path d="M229.722 114.895C229.722 114.895 226.399 118.263 226.636 119.877C226.872 121.491 230.052 126.562 234.607 123.837C234.607 123.837 238.832 115.891 229.722 114.895Z" fill="#575A89"/>
<path opacity="0.1" d="M243.324 215.78C242.496 215.812 237.787 215.78 237.787 215.78C237.718 215.708 237.653 215.632 237.593 215.553C238.798 215.143 241.4 214.528 243.324 215.78Z" fill="black"/>
<path opacity="0.1" d="M256.793 215.78C255.964 215.812 251.256 215.78 251.256 215.78C251.187 215.708 251.122 215.632 251.062 215.553C252.261 215.143 254.863 214.528 256.793 215.78Z" fill="black"/>
<path opacity="0.1" d="M238.652 132.329C237.926 139.293 238.166 153.112 238.316 159.25C237.235 159.885 236.178 160.5 235.273 161.015C234.538 161.404 233.727 161.627 232.896 161.667C232.594 159.811 236.773 140.745 238.652 132.329Z" fill="black"/>
<path opacity="0.1" d="M239.541 128.378C239.521 128.478 239.176 129.992 238.652 132.329C238.857 130.334 239.142 128.902 239.541 128.378Z" fill="black"/>
<path opacity="0.1" d="M251.099 127.626C251.099 127.626 255.133 152.964 243.188 156.095C243.185 156.084 251.452 154.828 251.099 127.626Z" fill="black"/>
<path opacity="0.1" d="M257.078 162.037C256.376 162.062 255.673 162.04 254.974 161.971L251.751 127.327C253.806 128.671 256.266 153.257 257.078 162.037Z" fill="black"/>
<path opacity="0.1" d="M242.627 85.108C242.841 85.091 243.056 85.1132 243.262 85.1734C243.564 85.324 243.836 85.5286 244.064 85.777C244.436 86.0872 244.88 86.2983 245.355 86.3904C245.83 86.4825 246.32 86.4527 246.78 86.3037C247.105 86.1585 247.45 86.0626 247.802 86.019C248.346 86.019 248.816 86.4175 249.098 86.873C249.38 87.3285 249.525 87.8695 249.767 88.3563C250.009 88.8431 250.396 89.3043 250.928 89.4239C251.184 89.4338 251.435 89.4917 251.669 89.5947C251.812 89.7111 251.922 89.8633 251.987 90.0359C252.431 90.9953 252.785 92.1284 253.733 92.5981C254.081 92.7598 254.461 92.8424 254.846 92.8401C255.236 92.8688 255.628 92.7983 255.984 92.6352C256.335 92.4394 256.624 92.1508 256.821 91.801C257.414 90.8217 257.482 89.6089 257.342 88.473C257.169 87.04 256.658 85.6685 255.853 84.4703C255.006 83.2584 253.851 82.2933 252.508 81.6736C251.165 81.0539 249.682 80.8018 248.21 80.943C247.696 81.0008 247.187 81.0959 246.686 81.2276C244.876 81.7116 243.099 82.6169 242 84.1343C241.735 84.5131 241.443 84.8727 241.126 85.2105C241.625 85.1621 242.126 85.1193 242.627 85.108Z" fill="black"/>
<path d="M242.627 84.8233C242.841 84.8063 243.056 84.8285 243.262 84.8888C243.564 85.0394 243.836 85.2439 244.064 85.4923C244.436 85.8026 244.88 86.0136 245.355 86.1057C245.83 86.1979 246.32 86.168 246.78 86.019C247.105 85.8739 247.45 85.7779 247.802 85.7343C248.346 85.7343 248.816 86.1329 249.098 86.5884C249.38 87.0439 249.525 87.5848 249.767 88.0716C250.009 88.5584 250.396 89.0196 250.928 89.1392C251.184 89.1491 251.435 89.2071 251.669 89.31C251.812 89.4264 251.922 89.5787 251.987 89.7513C252.431 90.7107 252.785 91.8437 253.733 92.3135C254.081 92.4751 254.461 92.5577 254.846 92.5555C255.236 92.5842 255.628 92.5136 255.984 92.3505C256.335 92.1548 256.624 91.8661 256.821 91.5163C257.414 90.537 257.482 89.3242 257.342 88.1883C257.169 86.7554 256.658 85.3838 255.853 84.1856C255.006 82.9737 253.851 82.0086 252.508 81.3889C251.165 80.7692 249.682 80.5171 248.21 80.6583C247.696 80.7161 247.187 80.8112 246.686 80.943C244.876 81.4269 243.099 82.3323 242 83.8497C241.735 84.2284 241.443 84.588 241.126 84.9258C241.625 84.8774 242.126 84.8347 242.627 84.8233Z" fill="#3F3D56"/>
<path opacity="0.1" d="M235.367 100.755C235.367 100.755 235.7 103.414 234.561 104.077C233.423 104.74 235.367 100.755 235.367 100.755Z" fill="black"/>
<path opacity="0.1" d="M259.517 121.349C259.517 121.349 262.222 117.363 262.603 118.502C262.985 119.641 259.517 121.349 259.517 121.349Z" fill="black"/>
<path opacity="0.1" d="M259.708 122.676C259.708 122.676 262.376 119.402 262.632 120.683C262.888 121.964 259.708 122.676 259.708 122.676Z" fill="black"/>
<path opacity="0.1" d="M251.873 118.778C250.906 118.792 249.962 118.481 249.192 117.896H248.958C248.159 118.625 247.111 119.02 246.029 118.997C245.466 119.01 244.907 118.909 244.385 118.7C243.863 118.49 243.389 118.177 242.991 117.779H242.681C241.861 118.446 240.832 118.802 239.775 118.783C238.718 118.764 237.702 118.371 236.907 117.674L235.794 117.654C235.794 117.654 237.098 121.127 236.318 123.293L255.344 123.632C255.197 121.77 255.242 119.897 255.48 118.044V118.018L254.436 117.998C253.684 118.519 252.788 118.792 251.873 118.778Z" fill="black"/>
<path opacity="0.1" d="M251.873 119.348C250.906 119.361 249.962 119.051 249.192 118.465H248.958C248.159 119.195 247.111 119.589 246.029 119.567C245.466 119.58 244.907 119.479 244.385 119.269C243.863 119.06 243.389 118.746 242.991 118.348H242.681C241.861 119.016 240.832 119.372 239.775 119.352C238.718 119.333 237.702 118.94 236.907 118.243L235.794 118.223C235.794 118.223 237.098 121.696 236.318 123.863L255.344 124.202C255.197 122.339 255.242 120.466 255.48 118.613V118.587L254.436 118.567C253.684 119.089 252.788 119.362 251.873 119.348Z" fill="black"/>
<path d="M251.873 119.063C250.906 119.077 249.962 118.766 249.192 118.18H248.958C248.159 118.91 247.111 119.305 246.029 119.282C245.466 119.295 244.907 119.194 244.385 118.984C243.863 118.775 243.389 118.462 242.991 118.064H242.681C241.861 118.731 240.832 119.087 239.775 119.068C238.718 119.048 237.702 118.655 236.907 117.958L235.794 117.938C235.794 117.938 237.098 121.412 236.318 123.578L255.344 123.917C255.197 122.054 255.242 120.182 255.48 118.328V118.303L254.436 118.283C253.684 118.804 252.788 119.077 251.873 119.063Z" fill="#3F3D56"/>
<path opacity="0.1" d="M251.028 100.08C251.028 100.08 255.034 100.336 255.059 100.905C255.085 101.475 251.028 100.08 251.028 100.08Z" fill="black"/>
<path opacity="0.1" d="M241.297 97.6514C241.297 97.6514 237.292 97.9076 237.266 98.477C237.24 99.0464 241.297 97.6514 241.297 97.6514Z" fill="black"/>
<path opacity="0.1" d="M256.605 109.292C256.565 109.264 256.525 109.241 256.485 109.215C257.51 110.138 257.339 112.153 256.081 113.816C254.823 115.479 252.913 116.17 251.751 115.425C251.788 115.456 251.819 115.49 251.859 115.521C252.998 116.392 254.991 115.709 256.306 113.99C257.621 112.27 257.749 110.166 256.605 109.292Z" fill="black"/>
<path opacity="0.1" d="M234.601 113.603C233.588 111.775 233.719 109.756 234.866 108.991C234.823 109.011 234.778 109.028 234.735 109.05C233.477 109.751 233.312 111.849 234.354 113.739C235.396 115.63 237.275 116.586 238.533 115.897C238.575 115.873 238.614 115.847 238.653 115.817C237.397 116.387 235.615 115.43 234.601 113.603Z" fill="black"/>
<path opacity="0.1" d="M235.956 98.1894L235.589 98.7588L234.653 98.2606L235.145 97.5033C235.471 97.6573 235.751 97.8938 235.956 98.1894Z" fill="black"/>
<path d="M230.006 119.259C230.006 119.259 230.841 115.336 229.722 114.089C228.603 112.842 228.962 106.306 230.67 106.448C232.378 106.591 234.94 111.761 234.513 112.854C234.086 113.947 232.472 119.544 232.472 119.544L230.006 119.259Z" fill="#FBBEBE"/>
<path opacity="0.1" d="M256.793 90.9555C256.596 91.3053 256.306 91.5939 255.956 91.7896C255.6 91.9528 255.208 92.0233 254.817 91.9946C254.433 91.9969 254.053 91.9143 253.704 91.7526C252.756 91.28 252.403 90.147 251.959 89.1904C251.903 89.0179 251.803 88.8629 251.669 88.7406C251.438 88.6358 251.19 88.5749 250.937 88.5613C250.405 88.4417 250.02 87.9777 249.775 87.4937C249.53 87.0097 249.385 86.4745 249.106 86.0104C248.827 85.5464 248.355 85.1393 247.811 85.1564C247.457 85.2033 247.112 85.3041 246.789 85.4553C246.328 85.6031 245.838 85.6321 245.363 85.5395C244.888 85.4469 244.444 85.2358 244.073 84.9258C243.844 84.6774 243.572 84.4728 243.27 84.3222C243.064 84.262 242.849 84.2398 242.635 84.2568C242.308 84.2568 241.983 84.2881 241.656 84.3137C241.494 84.5264 241.32 84.7297 241.135 84.9229C241.633 84.8802 242.134 84.8375 242.635 84.8261C242.849 84.8091 243.064 84.8313 243.27 84.8916C243.572 85.0422 243.844 85.2467 244.073 85.4952C244.444 85.8052 244.888 86.0163 245.363 86.1089C245.838 86.2015 246.328 86.1725 246.789 86.0247C247.112 85.8735 247.457 85.7727 247.811 85.7258C248.355 85.7258 248.824 86.1243 249.106 86.5798C249.388 87.0353 249.533 87.5762 249.775 88.0631C250.017 88.5499 250.405 89.0111 250.937 89.1306C251.19 89.1443 251.438 89.2052 251.669 89.31C251.812 89.4264 251.922 89.5786 251.987 89.7513C252.431 90.7107 252.785 91.8437 253.733 92.3135C254.081 92.4751 254.461 92.5577 254.846 92.5555C255.236 92.5841 255.628 92.5136 255.984 92.3505C256.335 92.1548 256.624 91.8661 256.821 91.5163C257.263 90.7116 257.461 89.7955 257.391 88.8801C257.369 89.6112 257.164 90.325 256.793 90.9555Z" fill="black"/>
<path d="M231.268 122.371C232.683 122.371 233.83 121.594 233.83 120.634C233.83 119.675 232.683 118.898 231.268 118.898C229.853 118.898 228.705 119.675 228.705 120.634C228.705 121.594 229.853 122.371 231.268 122.371Z" fill="#575A89"/>
<path d="M147.751 217.301C196.256 217.301 235.578 177.979 235.578 129.474C235.578 80.9686 196.256 41.6472 147.751 41.6472C99.2457 41.6472 59.9243 80.9686 59.9243 129.474C59.9243 177.979 99.2457 217.301 147.751 217.301Z" fill="#00DCB4"/>
<path d="M193.834 173.609C193.834 187.474 172.038 174.794 148.671 174.794C125.303 174.794 101.668 186.95 101.668 173.086C101.668 165.18 109.201 154.185 120.008 146.2C128.15 140.181 138.148 135.871 148.192 135.871C158.521 135.871 168.639 140.537 176.71 146.943C186.896 155.019 193.834 165.872 193.834 173.609Z" fill="#444053"/>
<path d="M176.707 146.937C164.286 145.066 141.821 142.786 120.008 146.194C128.15 140.175 138.148 135.865 148.192 135.865C158.518 135.865 168.636 140.531 176.707 146.937Z" fill="#F6F8FB"/>
<path opacity="0.05" d="M101.668 67.4772C101.668 67.4772 75.2122 84.3906 75.4286 110.847C75.6449 137.303 101.668 67.4772 101.668 67.4772Z" fill="black"/>
<path d="M235.544 19.7091C235.544 19.7091 211.573 18.2657 214.4 35.0624C214.4 35.0624 213.83 38.0289 216.529 39.3783C216.529 39.3783 216.572 38.1342 218.986 38.5555C219.846 38.6995 220.721 38.7415 221.591 38.6808C222.767 38.6009 223.884 38.139 224.774 37.3655C224.774 37.3655 231.512 34.5841 234.134 23.5695C234.134 23.5695 236.073 21.1667 235.996 20.5518L231.951 22.277C231.951 22.277 233.332 25.1951 232.236 27.6206C232.236 27.6206 232.105 22.3852 231.327 22.4962C231.171 22.5218 229.226 23.5068 229.226 23.5068C229.226 23.5068 231.603 28.5914 229.796 32.2838C229.796 32.2838 230.476 26.0207 228.469 23.8741L225.622 25.5367C225.622 25.5367 228.401 30.7864 226.516 35.0709C226.516 35.0709 227 28.5003 225.024 25.9409L222.442 27.9537C222.442 27.9537 225.053 33.1294 223.461 36.6823C223.461 36.6823 223.254 29.0327 221.884 28.4548C221.884 28.4548 219.627 30.4476 219.282 31.2646C219.282 31.2646 221.07 35.0197 219.963 37.0011C219.963 37.0011 219.282 31.9052 218.724 31.8767C218.724 31.8767 216.475 35.2531 216.239 37.5705C216.239 37.5705 216.338 34.1258 218.178 31.555C218.178 31.555 216.003 31.928 214.736 33.34C214.736 33.34 215.086 30.9515 218.721 30.7437C218.721 30.7437 220.58 28.1815 221.079 28.0277C221.079 28.0277 217.449 27.7231 215.248 28.6996C215.248 28.6996 217.184 26.4477 221.742 27.4697L224.304 25.3915C224.304 25.3915 219.527 24.7367 217.5 25.4598C217.5 25.4598 219.832 23.467 224.99 24.9189L227.766 23.2592C227.766 23.2592 223.692 22.3823 221.264 22.6898C221.264 22.6898 223.826 21.309 228.577 22.8065L230.57 21.9154C230.57 21.9154 227.584 21.329 226.71 21.2379C225.836 21.1468 225.79 20.9019 225.79 20.9019C227.687 20.5936 229.632 20.8193 231.407 21.5539C231.407 21.5539 235.615 19.9738 235.544 19.7091Z" fill="#00DCB4"/>
<path d="M210.958 12.2417C210.958 12.2417 200.14 11.5869 201.404 19.1767C201.404 19.1767 201.15 20.5176 202.366 21.1268C202.366 21.1268 202.383 20.5574 203.476 20.7567C203.865 20.8207 204.259 20.8398 204.652 20.8137C205.184 20.7757 205.689 20.567 206.092 20.2187C206.092 20.2187 209.136 18.9603 210.32 13.984C210.32 13.984 211.197 12.8993 211.174 12.6203L209.346 13.4003C209.346 13.4003 209.973 14.7185 209.48 15.8145C209.48 15.8145 209.42 13.4487 209.07 13.5057C208.999 13.5057 208.119 13.9612 208.119 13.9612C208.119 13.9612 209.196 16.2586 208.384 17.9269C208.384 17.9269 208.692 15.0971 207.786 14.1263L206.5 14.8779C206.5 14.8779 207.755 17.2522 206.904 19.1881C206.904 19.1881 207.12 16.2188 206.229 15.0629L205.062 15.9711C205.062 15.9711 206.24 18.3084 205.523 19.914C205.523 19.914 205.429 16.4579 204.809 16.196C204.809 16.196 203.789 17.0956 203.633 17.4657C203.633 17.4657 204.441 19.1738 203.94 20.0592C203.94 20.0592 203.633 17.7561 203.371 17.7476C203.371 17.7476 202.354 19.2706 202.249 20.3098C202.298 19.3427 202.599 18.4054 203.123 17.591C202.537 17.7018 201.997 17.9819 201.569 18.3966C201.569 18.3966 201.725 17.3177 203.374 17.2237C203.374 17.2237 204.214 16.0679 204.438 15.9967C204.438 15.9967 202.799 15.8601 201.805 16.3013C201.805 16.3013 202.679 15.2821 204.74 15.732L205.879 14.7953C205.879 14.7953 203.721 14.5106 202.804 14.8238C202.804 14.8238 203.858 13.9242 206.189 14.5818L207.442 13.8302C207.442 13.8302 205.603 13.4345 204.504 13.5769C204.504 13.5769 205.663 12.9534 207.809 13.6309L208.706 13.2267C208.706 13.2267 207.356 12.9619 206.964 12.9221C206.571 12.8822 206.545 12.7712 206.545 12.7712C207.4 12.629 208.277 12.7276 209.079 13.0559C209.079 13.0559 210.989 12.3612 210.958 12.2417Z" fill="#00DCB4"/>
<path opacity="0.1" d="M305.498 207.826C309.732 207.826 313.164 207.246 313.164 206.531C313.164 205.816 309.732 205.236 305.498 205.236C301.263 205.236 297.831 205.816 297.831 206.531C297.831 207.246 301.263 207.826 305.498 207.826Z" fill="#6C63FF"/>
<path opacity="0.1" d="M13.3149 229.374C17.5491 229.374 20.9816 228.794 20.9816 228.079C20.9816 227.364 17.5491 226.784 13.3149 226.784C9.08069 226.784 5.64819 227.364 5.64819 228.079C5.64819 228.794 9.08069 229.374 13.3149 229.374Z" fill="#6C63FF"/>
<path opacity="0.1" d="M57.8205 231C62.0547 231 65.4872 230.42 65.4872 229.705C65.4872 228.989 62.0547 228.409 57.8205 228.409C53.5863 228.409 50.1538 228.989 50.1538 229.705C50.1538 230.42 53.5863 231 57.8205 231Z" fill="#6C63FF"/>
<path d="M288.718 222.348C295.04 222.348 300.165 221.482 300.165 220.412C300.165 219.343 295.04 218.477 288.718 218.477C282.396 218.477 277.271 219.343 277.271 220.412C277.271 221.482 282.396 222.348 288.718 222.348Z" fill="#00DCB4"/>
<path d="M293.449 217.25C293.972 216.823 294.353 216.248 294.543 215.601C294.682 214.949 294.403 214.163 293.78 213.924C293.079 213.657 292.331 214.144 291.764 214.633C291.198 215.123 290.546 215.681 289.803 215.578C290.185 215.232 290.471 214.793 290.632 214.304C290.794 213.814 290.826 213.291 290.725 212.786C290.693 212.576 290.604 212.379 290.469 212.216C290.079 211.801 289.376 211.977 288.909 212.304C287.428 213.346 287.016 215.356 287.007 217.167C286.859 216.515 286.984 215.835 286.981 215.174C286.979 214.514 286.793 213.751 286.23 213.401C285.88 213.214 285.487 213.121 285.091 213.133C284.425 213.107 283.685 213.173 283.229 213.66C282.66 214.266 282.811 215.279 283.303 215.937C283.796 216.595 284.542 217.022 285.228 217.48C285.78 217.808 286.251 218.257 286.606 218.793C286.647 218.868 286.681 218.947 286.708 219.029H290.879C291.812 218.554 292.677 217.956 293.449 217.25Z" fill="#00DCB4"/>
<path d="M16.8934 193.378C16.8934 193.378 18.4564 195.422 16.1703 198.503C13.8843 201.583 11.9996 204.197 12.754 206.121C12.754 206.121 16.2016 200.387 19.0172 200.305C21.8328 200.222 19.9795 196.826 16.8934 193.378Z" fill="#00DCB4"/>
<path opacity="0.1" d="M16.8935 193.378C17.0292 193.576 17.1366 193.791 17.2124 194.019C19.9511 197.236 21.4087 200.239 18.7781 200.313C16.3241 200.385 13.369 204.769 12.6772 205.876C12.7014 205.962 12.7299 206.047 12.7627 206.13C12.7627 206.13 16.2102 200.396 19.0258 200.313C21.8414 200.231 19.9795 196.826 16.8935 193.378Z" fill="black"/>
<path d="M19.8002 195.983C19.8002 196.703 19.7176 197.287 19.618 197.287C19.5183 197.287 19.4386 196.718 19.4386 195.983C19.4386 195.249 19.5382 195.602 19.6407 195.602C19.7432 195.602 19.8002 195.263 19.8002 195.983Z" fill="#FFD037"/>
<path d="M20.7851 196.843C20.1531 197.187 19.6037 197.395 19.5553 197.307C19.5069 197.219 19.9823 196.871 20.6143 196.527C21.2463 196.182 20.9958 196.433 21.0442 196.527C21.0926 196.621 21.4285 196.498 20.7851 196.843Z" fill="#FFD037"/>
<path d="M8.63174 193.378C8.63174 193.378 7.06879 195.422 9.352 198.503C11.6352 201.583 13.5227 204.197 12.7683 206.121C12.7683 206.121 9.31784 200.387 6.50511 200.305C3.69237 200.222 5.54286 196.826 8.63174 193.378Z" fill="#00DCB4"/>
<path opacity="0.1" d="M8.63184 193.378C8.49486 193.575 8.38744 193.791 8.31299 194.019C5.57427 197.236 4.11381 200.239 6.74719 200.313C9.19837 200.385 12.1563 204.769 12.8452 205.876C12.822 205.962 12.7945 206.047 12.7627 206.13C12.7627 206.13 9.31224 200.396 6.49951 200.313C3.68678 200.231 5.54295 196.826 8.63184 193.378Z" fill="black"/>
<path d="M5.7251 195.983C5.7251 196.703 5.80481 197.287 5.90445 197.287C6.00409 197.287 6.08381 196.718 6.08381 195.983C6.08381 195.249 5.98417 195.602 5.88453 195.602C5.78488 195.602 5.7251 195.263 5.7251 195.983Z" fill="#FFD037"/>
<path d="M4.72582 196.843C5.35784 197.187 5.91013 197.395 5.95853 197.307C6.00693 197.219 5.5315 196.871 4.89949 196.527C4.26747 196.182 4.51516 196.433 4.46961 196.527C4.42406 196.621 4.09381 196.498 4.72582 196.843Z" fill="#FFD037"/>
<path d="M6.22327 205.862C6.22327 205.862 10.5961 205.728 11.9171 204.789C13.238 203.849 18.6443 202.73 18.9717 204.219C19.2991 205.708 25.5423 211.707 20.6058 211.746C15.6693 211.786 9.13564 210.975 7.82038 210.175C6.50511 209.375 6.22327 205.862 6.22327 205.862Z" fill="#00DCB4"/>
<path opacity="0.2" d="M20.6883 211.237C15.7518 211.277 9.2182 210.465 7.90294 209.665C6.90083 209.056 6.50226 206.867 6.36846 205.856H6.22327C6.22327 205.856 6.50796 209.384 7.81468 210.183C9.12141 210.983 15.6636 211.795 20.6001 211.755C22.0235 211.755 22.5161 211.234 22.4904 210.485C22.2911 210.944 21.7502 211.228 20.6883 211.237Z" fill="black"/>
<path d="M116.526 117.958C118.197 117.864 126.063 117.272 131.06 114.422C131.862 113.95 132.769 113.683 133.699 113.645C135.287 113.6 137.115 114.263 135.945 117.975C134.049 124.048 123.04 130.88 116.208 130.502C109.637 130.137 101.842 127.49 96.6949 118.18C96.2017 117.285 95.9588 116.273 95.9917 115.251C96.0515 113.372 96.7348 111.018 100.262 113.642C105.028 117.187 114.07 117.859 115.883 117.958C116.097 117.97 116.312 117.97 116.526 117.958Z" fill="#444053"/>
<path d="M179.727 117.958C181.399 117.864 189.265 117.272 194.261 114.422C195.063 113.95 195.97 113.683 196.9 113.645C198.488 113.6 200.316 114.263 199.146 117.975C197.25 124.048 186.241 130.88 179.409 130.502C172.838 130.137 165.043 127.49 159.896 118.18C159.403 117.285 159.16 116.273 159.193 115.251C159.253 113.372 159.936 111.018 163.463 113.642C168.229 117.187 177.271 117.859 179.084 117.958C179.298 117.97 179.513 117.97 179.727 117.958Z" fill="#444053"/>
</g>
<defs>
<linearGradient id="paint0_linear_4_153" x1="253.983" y1="215.792" x2="253.983" y2="75.1439" gradientUnits="userSpaceOnUse">
<stop stop-color="#808080" stop-opacity="0.25"/>
<stop offset="0.54" stop-color="#808080" stop-opacity="0.12"/>
<stop offset="1" stop-color="#808080" stop-opacity="0.1"/>
</linearGradient>
<clipPath id="clip0_4_153">
<rect width="313.164" height="231" fill="white"/>
</clipPath>
</defs>
</svg>
